<?xml version="1.0" standalone="no"?>
<!DOCTYPE svg PUBLIC "-//W3C//DTD SVG 20010904//EN"
 "http://www.w3.org/TR/2001/REC-SVG-20010904/DTD/svg10.dtd">
<svg version="1.0" xmlns="http://www.w3.org/2000/svg"
 width="1385.000000pt" height="817.000000pt" viewBox="0 0 1385.000000 817.000000"
 preserveAspectRatio="xMidYMid meet">

<g transform="translate(0.000000,817.000000) scale(0.100000,-0.100000)"
fill="#000000" stroke="none">
<path d="M0 5910 l0 -2250 2000 0 2000 0 0 1050 0 1050 1425 0 1425 0 0 1125
0 1125 2073 -2 2072 -3 3 -1122 2 -1123 1420 0 1420 0 0 1200 0 1200 -6920 0
-6920 0 0 -2250z m448 1774 c19 -22 23 -35 18 -63 -7 -44 -35 -69 -87 -77
l-39 -7 0 -48 c0 -48 -1 -49 -30 -49 l-30 0 0 141 0 142 72 -5 c63 -5 75 -9
96 -34z m213 -94 c27 -69 49 -131 49 -137 0 -8 -13 -13 -30 -13 -23 0 -31 5
-36 25 -6 23 -11 25 -58 25 -47 0 -54 -3 -64 -25 -9 -19 -19 -25 -42 -25 -16
0 -30 3 -30 8 0 8 95 247 105 263 4 5 18 9 32 7 21 -3 30 -19 74 -128z m219
100 c0 -27 -3 -30 -30 -30 l-30 0 0 -110 0 -110 -30 0 -30 0 0 110 0 110 -30
0 c-27 0 -30 3 -30 30 l0 30 90 0 90 0 0 -30z m186 -4 c31 -35 30 -67 -2 -105
l-26 -31 41 -49 c23 -27 41 -52 41 -55 0 -3 -16 -6 -35 -6 -31 0 -40 6 -73 52
l-37 53 -5 -50 c-5 -46 -7 -50 -32 -53 l-28 -3 0 142 0 141 66 -4 c58 -4 70
-8 90 -32z m261 8 c97 -63 74 -213 -36 -244 -101 -28 -188 63 -159 167 11 41
57 89 91 96 32 7 78 -1 104 -19z m296 4 c16 -8 17 -12 4 -31 -11 -17 -22 -21
-64 -18 -45 2 -53 -1 -72 -25 -27 -34 -27 -54 1 -89 19 -25 26 -27 74 -23 40
3 55 1 59 -10 11 -30 4 -42 -33 -51 -88 -24 -182 41 -182 127 0 59 47 120 105
135 25 7 83 -1 108 -15z m97 -119 l0 -140 -27 3 -28 3 -3 138 -3 137 31 0 30
0 0 -141z m137 80 c21 -34 46 -71 55 -83 17 -20 17 -18 18 62 l0 82 30 0 31 0
-3 -137 -3 -138 -27 -3 c-24 -3 -32 5 -65 59 -21 34 -46 71 -55 83 -17 20 -17
18 -18 -62 l0 -83 -27 3 -28 3 -3 138 -3 137 31 0 c26 0 35 -8 67 -61z m358
-76 c29 -73 50 -135 47 -138 -15 -15 -53 -3 -64 20 -10 22 -17 25 -63 25 -46
0 -53 -3 -63 -25 -11 -23 -49 -35 -64 -20 -5 5 82 241 98 267 3 5 17 8 32 6
23 -3 31 -17 77 -135z m218 111 c59 -44 75 -128 37 -189 -25 -40 -69 -59 -135
-60 l-50 0 -3 139 -3 139 65 -5 c40 -4 73 -12 89 -24z m250 12 c53 -22 87 -70
87 -123 0 -108 -102 -169 -198 -119 -89 46 -81 195 12 237 49 22 57 23 99 5z
m279 -16 c26 -32 23 -86 -5 -114 l-23 -23 38 -48 c21 -26 38 -51 38 -56 0 -5
-15 -9 -32 -9 -28 0 -39 8 -73 56 l-40 56 -3 -56 c-3 -55 -4 -56 -32 -56 l-30
0 0 141 0 142 72 -5 c59 -5 75 -10 90 -28z m218 0 c0 -29 -2 -30 -45 -30 -41
0 -45 -2 -45 -25 0 -23 4 -25 45 -25 43 0 45 -1 45 -30 0 -29 -2 -30 -45 -30
-41 0 -45 -2 -45 -25 0 -23 4 -25 45 -25 43 0 45 -1 45 -30 l0 -31 -72 3 -73
3 -3 138 -3 137 76 0 75 0 0 -30z m186 15 c29 -12 34 -17 25 -32 -7 -13 -22
-18 -53 -18 -54 0 -58 -22 -10 -47 70 -34 88 -65 66 -116 -20 -48 -89 -59
-166 -27 -21 8 -21 7 -7 39 11 24 13 25 41 10 34 -18 78 -11 78 11 0 8 -22 26
-50 40 -35 18 -52 33 -56 52 -9 33 12 73 46 90 32 16 43 16 86 -2z m1509 -168
c33 -19 244 -138 468 -265 225 -128 410 -232 412 -232 1 0 5 9 8 20 5 20 12
20 124 18 l118 -3 3 -32 3 -32 -58 -3 c-43 -2 -58 -7 -58 -18 0 -8 14 -17 34
-21 42 -9 69 -35 77 -76 5 -27 1 -37 -24 -63 -18 -18 -41 -30 -56 -30 -14 0
-26 -4 -26 -10 0 -5 25 -10 56 -10 l55 0 -3 -37 -3 -38 -52 -3 -53 -3 0 -56
c0 -71 18 -93 72 -93 39 0 39 0 36 -37 l-3 -38 -45 3 c-33 3 -53 11 -75 33
-17 16 -34 29 -38 29 -24 0 12 -45 158 -195 90 -93 163 -170 161 -172 -1 -2
-133 67 -292 153 -274 148 -290 156 -319 145 -99 -36 -193 17 -210 118 -6 34
-14 40 -171 131 -90 52 -164 97 -164 100 0 3 15 12 34 18 l34 13 -24 42 c-22
38 -24 53 -24 174 l0 132 -25 3 -25 3 20 33 c15 25 27 32 50 32 16 0 30 4 30
8 0 5 -43 48 -96 97 -97 91 -192 195 -177 195 4 0 35 -15 68 -33z m8080 -478
c132 -11 254 -36 330 -68 l50 -21 -60 6 c-135 14 -267 19 -390 13 -170 -8
-225 -17 -218 -35 3 -8 -6 -18 -21 -25 -31 -14 -44 -6 -26 16 7 8 8 15 3 15
-17 0 -213 -57 -220 -64 -7 -6 25 -35 40 -36 4 0 7 9 7 20 0 15 7 20 25 20 22
0 25 -4 25 -40 0 -35 4 -42 45 -70 l45 -31 0 76 0 75 50 0 c43 0 50 -3 50 -20
0 -15 -7 -20 -25 -20 -16 0 -25 -6 -25 -15 0 -8 9 -15 20 -15 12 0 20 -7 20
-16 0 -9 -9 -18 -20 -21 -29 -8 -25 -33 5 -33 18 0 25 -5 25 -20 0 -14 -7 -20
-21 -20 -11 0 -17 -5 -14 -10 8 -13 -27 -26 -134 -51 -258 -60 -589 -89 -811
-70 -141 11 -306 47 -357 76 l-28 16 33 -5 c119 -20 318 -27 438 -17 140 12
270 33 242 39 -16 3 -18 17 -18 112 0 127 -4 133 -92 128 -51 -3 -53 -2 -53
22 l0 25 120 -3 c96 -3 147 1 255 21 257 48 502 64 705 46z m-1478 -84 c17 -7
39 -25 49 -40 16 -25 16 -28 0 -61 -12 -26 -30 -42 -69 -59 -28 -14 -60 -25
-69 -25 -14 0 -18 -9 -18 -40 0 -39 -1 -40 -35 -40 l-35 0 0 138 c0 76 3 142
8 146 10 11 130 -3 169 -19z m341 3 c-3 -20 -10 -24 -58 -28 l-55 -5 -3 -37
-3 -38 50 0 c44 0 51 -3 51 -20 0 -17 -7 -20 -50 -20 l-50 0 0 -40 0 -40 65 0
c58 0 65 -2 65 -20 0 -19 -7 -20 -100 -20 l-100 0 0 138 c0 76 3 142 7 145 3
4 46 7 95 7 87 0 89 -1 86 -22z m1050 -90 c3 -14 -3 -18 -27 -18 l-31 0 0 -65
c0 -63 -1 -65 -25 -65 -24 0 -25 2 -25 65 l0 65 -30 0 c-28 0 -40 17 -23 34 4
4 41 5 82 4 63 -3 76 -6 79 -20z m131 -2 c13 -13 13 -21 4 -47 -10 -27 -9 -35
9 -59 21 -29 18 -50 -7 -50 -7 0 -23 14 -35 30 -22 31 -46 41 -36 15 8 -23 -4
-45 -25 -45 -17 0 -19 8 -19 83 0 46 3 87 8 91 11 12 83 -1 101 -18z m96 -67
c0 -77 -2 -84 -20 -84 -18 0 -20 8 -23 79 -2 57 1 82 10 87 26 17 33 1 33 -82z
m173 69 c-2 -14 -13 -24 -31 -29 -37 -10 -57 -27 -57 -50 0 -23 14 -31 66 -39
l42 -7 39 74 c21 40 44 73 50 73 12 0 103 -145 103 -163 0 -21 -32 -17 -51 7
-27 34 -71 35 -97 1 -17 -22 -28 -25 -82 -25 -55 0 -65 3 -92 30 -24 25 -29
36 -23 58 8 34 22 50 60 74 43 26 77 24 73 -4z m-58 -208 c0 -38 27 -41 32 -3
4 37 28 42 28 6 0 -34 -16 -53 -45 -53 -29 0 -45 19 -45 52 0 18 5 28 15 28
10 0 15 -10 15 -30z m135 20 c3 -5 -2 -10 -12 -10 -15 0 -16 -2 -3 -11 11 -8
12 -12 3 -16 -7 -2 -13 -11 -13 -19 0 -8 -7 -14 -15 -14 -10 0 -15 10 -15 33
0 19 3 37 7 40 10 10 41 8 48 -3z m45 -24 c0 -18 -6 -39 -14 -45 -17 -15 -28
-1 -15 19 5 8 9 25 9 38 0 12 5 22 10 22 6 0 10 -15 10 -34z m80 24 c0 -5 -8
-10 -17 -10 -16 0 -16 -2 -3 -11 11 -8 12 -12 3 -16 -7 -2 -13 -11 -13 -19 0
-8 -4 -14 -10 -14 -5 0 -10 18 -10 40 0 36 3 40 25 40 14 0 25 -4 25 -10z"/>
<path d="M347 7663 c-11 -10 -8 -61 3 -68 22 -14 50 6 50 35 0 32 -34 53 -53
33z"/>
<path d="M571 7597 c-16 -41 -14 -47 14 -47 29 0 29 -2 11 41 l-14 34 -11 -28z"/>
<path d="M970 7634 c0 -31 3 -35 23 -32 41 6 32 67 -10 68 -8 0 -13 -14 -13
-36z"/>
<path d="M1215 7635 c-16 -15 -25 -36 -25 -55 0 -36 38 -80 70 -80 33 0 60 35
60 80 0 73 -58 103 -105 55z"/>
<path d="M2121 7590 c-14 -42 -15 -40 15 -40 22 0 24 3 18 23 -14 47 -21 51
-33 17z"/>
<path d="M2340 7580 c0 -66 3 -80 16 -80 69 0 96 117 35 149 -45 25 -51 16
-51 -69z"/>
<path d="M2599 7641 c-18 -14 -24 -29 -24 -61 0 -32 6 -47 24 -61 49 -40 106
-8 106 61 0 45 -29 80 -65 80 -10 0 -28 -9 -41 -19z"/>
<path d="M2860 7634 c0 -33 2 -35 27 -32 34 4 43 36 17 55 -31 22 -44 16 -44
-23z"/>
<path d="M5120 7093 c0 -134 1 -143 23 -169 19 -22 29 -26 50 -20 27 6 27 6
27 105 0 59 4 101 10 103 6 2 -17 30 -50 63 l-60 59 0 -141z"/>
<path d="M5300 6997 c0 -32 2 -57 4 -57 39 0 50 64 16 95 -20 18 -20 17 -20
-38z"/>
<path d="M5693 6768 c-29 -11 -53 -24 -53 -28 0 -20 35 -33 84 -31 40 2 58 -2
79 -19 l27 -21 0 60 0 61 -42 -1 c-24 0 -67 -10 -95 -21z"/>
<path d="M5752 6613 c40 -39 58 -40 37 -1 -15 28 -28 38 -54 38 -16 0 -14 -6
17 -37z"/>
<path d="M5449 6550 c13 -11 31 -20 40 -20 9 0 3 8 -17 20 -41 25 -54 25 -23
0z"/>
<path d="M12080 6794 c0 -77 2 -85 18 -80 124 35 162 48 162 52 0 5 -165 114
-174 114 -3 0 -6 -39 -6 -86z"/>
<path d="M11370 6890 c0 -56 9 -61 60 -35 55 28 32 85 -34 85 -24 0 -26 -3
-26 -50z"/>
<path d="M12930 6850 c0 -11 6 -20 14 -20 21 0 31 21 15 31 -22 14 -29 11 -29
-11z"/>
<path d="M13370 6830 c0 -5 5 -10 10 -10 6 0 10 5 10 10 0 6 -4 10 -10 10 -5
0 -10 -4 -10 -10z"/>
<path d="M6950 6825 l0 -1075 1973 2 1972 3 3 1073 2 1072 -1975 0 -1975 0 0
-1075z"/>
<path d="M4100 2825 l0 -2825 4820 0 4820 0 0 2825 0 2825 -4820 0 -4820 0 0
-2825z"/>
<path d="M943 1310 c-34 -14 -43 -42 -43 -143 l0 -94 -107 -6 c-58 -4 -195 -7
-303 -7 -187 0 -198 -1 -216 -21 -18 -20 -19 -44 -22 -435 l-3 -414 25 -25
c23 -23 33 -25 116 -25 61 0 98 -5 113 -14 52 -33 123 -36 925 -36 851 0 857
1 936 50 38 23 39 26 56 115 11 58 10 94 -7 386 -11 181 13 167 -299 171 -151
2 -257 7 -263 13 -5 6 -14 44 -20 85 -14 106 -19 127 -41 171 -13 25 -20 58
-20 97 0 82 -14 118 -52 131 -38 13 -742 14 -775 1z m477 -90 c19 -19 20 -33
20 -284 l0 -264 56 -4 c66 -6 88 -24 88 -74 0 -26 -7 -42 -23 -55 -21 -17 -42
-19 -182 -19 -169 0 -200 7 -218 46 -23 52 25 104 96 104 l43 0 0 210 0 210
-44 0 c-85 0 -129 77 -76 130 17 17 33 20 120 20 87 0 103 -3 120 -20z m-738
-306 c68 -35 99 -147 59 -211 -25 -40 -59 -62 -113 -75 -56 -12 -68 -24 -68
-64 l0 -34 78 0 c87 0 122 -16 122 -55 0 -47 -21 -55 -151 -55 -108 0 -121 2
-140 21 -19 19 -21 30 -17 105 3 64 9 91 24 111 31 42 67 64 113 70 26 4 47
13 56 27 19 27 19 32 -5 56 -16 16 -33 20 -87 20 -70 0 -103 16 -103 50 0 20
27 46 55 53 32 9 147 -4 177 -19z m1465 -224 c44 -26 62 -85 40 -129 -14 -28
-14 -34 0 -62 22 -44 4 -103 -40 -129 -40 -25 -138 -28 -157 -5 -26 31 -8 50
52 55 62 6 82 18 76 46 -2 15 -15 20 -62 24 -41 4 -62 10 -70 23 -20 31 4 51
70 57 47 4 60 9 62 24 6 28 -14 40 -76 46 -60 5 -78 24 -52 55 19 23 117 20
157 -5z"/>
</g>
</svg>
